<svg xmlns="http://www.w3.org/2000/svg" version="1.1" xmlns:xlink="http://www.w3.org/1999/xlink" xmlns:svgjs="http://svgjs.dev/svgjs" width="1000" height="623" viewBox="0 0 1000 623"><g transform="matrix(1,0,0,1,-0.6060606060606233,0.2522267206477409)"><svg viewBox="0 0 396 247" data-background-color="#0a1627" preserveAspectRatio="xMidYMid meet" height="623" width="1000" xmlns="http://www.w3.org/2000/svg" xmlns:xlink="http://www.w3.org/1999/xlink"><g id="tight-bounds" transform="matrix(1,0,0,1,0.2400000000000091,-0.09999999999999432)"><svg viewBox="0 0 395.52 247.2" height="247.2" width="395.52"><g><svg viewBox="0 0 395.52 247.2" height="247.2" width="395.52"><g transform="matrix(1,0,0,1,0,9.397975921707939)"><svg viewBox="0 0 395.52 228.4040481565841" height="228.4040481565841" width="395.52"><g><svg viewBox="0 0 395.52 228.4040481565841" height="228.4040481565841" width="395.52"><g><svg viewBox="0 0 395.52 228.4040481565841" height="228.4040481565841" width="395.52"><g id="textblocktransform"><svg viewBox="0 0 395.52 228.4040481565841" height="228.4040481565841" width="395.52" id="textblock"><g><rect width="395.52" height="161.5551769805432" fill="none" stroke-width="8.962371322224001" stroke="#fe0039" data-fill-palette-color="none" data-stroke-palette-color="tertiary"></rect><rect width="395.52" height="70.2244319544237" y="161.5551769805432" fill="#fe0039" data-fill-palette-color="tertiary"></rect></g><g><svg viewBox="0 0 395.52 160.5551769805432" height="160.5551769805432" width="395.52"><g transform="matrix(1,0,0,1,23.461705032,23.461705032)"><svg width="348.596589936" viewBox="4.22 -36.25 112.72 36.74" height="113.6317669165432" data-palette-color="#fe0039"><path d="M8.5 0L4.22 0 6.93-35.77 14.11-35.77 22.95-10.79 24.32-6.13 24.8-6.13 26.15-10.79 35.01-35.77 42.21-35.77 44.92 0 40.21 0 38.31-28.08 38.11-33.2 37.65-33.2 36.23-28.32 26.56-0.73 22.24-0.73 12.48-28.27 11.01-33.2 10.55-33.2 10.4-28.13 8.5 0ZM81.32-6.3L81.32-3.44Q79.95-2.25 78.34-1.48 76.73-0.71 75.1-0.27 73.46 0.17 71.96 0.33 70.46 0.49 69.31 0.49L69.31 0.49Q65.77 0.49 62.72-0.77 59.67-2.03 57.41-4.32 55.15-6.62 53.87-9.85 52.59-13.09 52.59-17.07L52.59-17.07Q52.59-20.04 53.32-22.63 54.05-25.22 55.37-27.34 56.69-29.47 58.49-31.13 60.3-32.79 62.47-33.92 64.65-35.06 67.09-35.66 69.53-36.25 72.09-36.25L72.09-36.25Q73.78-36.25 76.14-35.95 78.51-35.64 81.22-34.84L81.22-34.84 80.39-30.59 79.9-30.35Q77.22-31.57 74.91-32.02 72.6-32.47 70.99-32.47L70.99-32.47Q68.06-32.47 65.6-31.34 63.13-30.2 61.35-28.23 59.57-26.27 58.57-23.66 57.57-21.04 57.57-18.09L57.57-18.09Q57.57-15.26 58.46-12.61 59.35-9.96 61.08-7.92 62.81-5.88 65.35-4.65 67.89-3.42 71.19-3.42L71.19-3.42Q72.14-3.42 73.29-3.54 74.44-3.66 75.73-3.99 77.02-4.32 78.44-4.87 79.86-5.42 81.32-6.3L81.32-6.3ZM89.28-35.77L94.06-35.77 94.06-13.55Q94.06-10.89 94.94-8.95 95.82-7.01 97.22-5.75 98.63-4.49 100.36-3.89 102.09-3.3 103.83-3.3L103.83-3.3Q105.59-3.3 107.17-3.92 108.76-4.54 109.94-5.77 111.13-7.01 111.84-8.85 112.54-10.69 112.54-13.16L112.54-13.16 112.54-35.77 116.94-35.77 116.94-13.21Q116.94-11.72 116.57-10.12 116.21-8.52 115.46-7.01 114.72-5.49 113.57-4.13 112.42-2.76 110.86-1.73 109.3-0.71 107.29-0.11 105.29 0.49 102.83 0.49L102.83 0.49Q99.82 0.49 97.33-0.45 94.84-1.39 93.05-3.19 91.25-4.98 90.27-7.6 89.28-10.23 89.28-13.57L89.28-13.57 89.28-35.77Z" opacity="1" transform="matrix(1,0,0,1,0,0)" fill="#fe0039" class="undefined-text-0" data-fill-palette-color="primary" id="text-0"></path></svg></g></svg></g><g transform="matrix(1,0,0,1,75.54432,160.5551769805432)"><svg viewBox="0 0 244.43135999999998 67.8488711760409" height="67.8488711760409" width="244.43135999999998"><rect width="244.43135999999998" height="67.8488711760409" x="0" y="0" opacity="1" fill="#fe0039" data-fill-palette-color="tertiary"></rect><g transform="matrix(1,0,0,1,20,3.2)"><svg width="204.43135999999998" viewBox="0 -40.2 136.9 41.150000000000006" height="61.4488711760409" data-palette-color="#0a1627"><path d="M59.75-37.75L55.4-34.35 43.4-1.6 38.2 0.95 30.25-22.6 22.8-1.6 17.6 0.95 4.75-34.45 0-37.3 1-39.3 14.7-39.3 14.7-37.75 11.05-35 21.45-5.7 28.9-26.5 26.2-34.5 21.6-37.3 22.6-39.3 37.3-39.3 37.3-37.75 32.85-34.3 42.15-5.8 52.45-34.3 43.55-37.3 44.55-39.3 59.75-39.3 59.75-37.75ZM95.45 0.9L92.75 0 62.75 0 62.75-1.55 67.45-5.25 67.45-35.55 62.25-37.3 63.25-39.3 92.25-39.3 94.95-40.2 94.95-28.7 93.45-28.2 87.5-37.05 73.7-37.05 73.7-21.2 81.55-21.2 85.2-27.6 86.75-27.6 86.75-12.4 84.75-11.4 81.6-18.95 73.7-18.95 73.7-2.25 87.3-2.25 93.95-12.1 95.45-11.6 95.45 0.9ZM128.65-21.15Q132.5-20.05 134.69-17.45 136.9-14.85 136.9-11.45L136.9-11.45Q136.9-8.3 134.37-5.53 131.84-2.75 128.07-1.1 124.3 0.55 120.9 0.55L120.9 0.55Q118.4 0.55 116 0.3L116 0.3Q112 0.05 109.8 0.05L109.8 0.05 103.45 0.05 103.45-1.5 108.15-5.2 108.15-35.6 102.95-37.3 103.95-39.3 109.75-39.3Q114.3-39.3 118.7-39.6L118.7-39.6Q122.1-39.8 123.7-39.8L123.7-39.8Q127.05-39.8 129.59-38.5 132.15-37.2 133.52-34.98 134.9-32.75 134.9-30L134.9-30Q134.9-27.5 133.17-25.23 131.44-22.95 128.65-21.25L128.65-21.25 128.65-21.15ZM128.15-27.5Q128.15-31.45 126.05-33.95 123.95-36.45 119.8-36.45L119.8-36.45Q116.8-36.45 114.4-34.75L114.4-34.75 114.4-21.5 121.55-21.5Q124.65-21.5 126.4-23.08 128.15-24.65 128.15-27.55L128.15-27.55 128.15-27.5ZM122.3-3.1Q125.9-3.1 128.02-4.9 130.15-6.7 130.15-9.75L130.15-9.75Q130.15-13.65 127.87-16.05 125.6-18.45 121.1-18.6L121.1-18.6Q120.75-18.55 120.15-18.55L120.15-18.55 114.4-18.55 114.4-4.4Q117.75-3.05 122.3-3.05L122.3-3.05 122.3-3.1Z" opacity="1" transform="matrix(1,0,0,1,0,0)" fill="#0a1627" class="undefined-text-1" data-fill-palette-color="quaternary" id="text-1"></path></svg></g></svg></g></svg></g></svg></g></svg></g></svg></g></svg></g><defs></defs></svg><rect width="395.52" height="247.2" fill="none" stroke="none" visibility="hidden"></rect></g></svg></g></svg>